<svg xmlns="http://www.w3.org/2000/svg" width="48" height="48" viewBox="0 0 48 48">
  <g id="Group_3" data-name="Group 3" transform="translate(-1427 756)">
    <circle id="Ellipse_1" data-name="Ellipse 1" cx="24" cy="24" r="24" transform="translate(1427 -756)" fill="#1e1f20"/>
    <g id="Group_1" data-name="Group 1" transform="translate(1435.789 -751.994)">
      <path id="Subtraction_1" data-name="Subtraction 1" d="M26.812,39.572h0l-.012-.023a.269.269,0,0,1,.02-.043h0l.014-.027.016-.031a3.215,3.215,0,0,0,.182-.49l0-.017h0v-.015a3.625,3.625,0,0,0,.136-.713c.021-.209.03-.44.03-.726v-.024c0-.2,0-.381-.014-.545-.011-.193-.028-.371-.053-.542-.007-.052-.014-.1-.02-.152-.014-.111-.029-.2-.047-.288-.007-.034-.013-.069-.019-.111-.021-.14-.055-.278-.087-.413h0l-.006-.026-.026-.108h0l0-.022c-.046-.2-.092-.367-.142-.527l-.015-.048c-.042-.136-.087-.269-.134-.4s-.1-.264-.154-.391v-.011h0v-.01c-.1-.235-.217-.469-.33-.7h0l-.007-.013h0v-.006l-.05-.1h0l-.04-.08c-.026-.052-.057-.112-.092-.168a.6.6,0,0,1-.08-.2.961.961,0,0,1-.012-.217v-.116a.884.884,0,0,1,.047-.373v-.017h0v-.012a1.266,1.266,0,0,1,.2-.3c.077-.09.162-.173.248-.258a2.047,2.047,0,0,0,.184-.208l.025-.032a3.055,3.055,0,0,0,.4-.706,3.739,3.739,0,0,0,.142-.383c.038-.114.075-.237.119-.389v-.034a6.689,6.689,0,0,0,.163-.734c.038-.223.07-.467.1-.746v-.027a8.434,8.434,0,0,0,.031-.853v-.026c0-.188,0-.437-.019-.684v-.033c-.009-.122-.019-.223-.034-.321-.008-.055-.014-.112-.02-.166v-.021c-.013-.113-.027-.205-.044-.293-.007-.036-.013-.076-.02-.124-.022-.159-.055-.31-.094-.479l-.008-.034a5.459,5.459,0,0,0-.163-.583c-.012-.035-.023-.071-.033-.1v-.01a4.506,4.506,0,0,0-.245-.626l-.012-.025a3.9,3.9,0,0,0-.207-.381,2.755,2.755,0,0,0-.256-.349,2.081,2.081,0,0,1-.172-.227,1.526,1.526,0,0,1-.13-.244,1.25,1.25,0,0,1-.078-.264,1.036,1.036,0,0,1,.131-.732,1.6,1.6,0,0,1,.289-.372,1.2,1.2,0,0,0,.089-.1l.011-.013h0l.025-.029a3.84,3.84,0,0,0,.3-.393c.085-.128.168-.266.254-.423l.017-.032a4.8,4.8,0,0,0,.265-.574,5.627,5.627,0,0,0,.193-.6v-.018h0v-.015c.036-.135.068-.276.094-.421s.045-.28.06-.427v-.022h0v-.009a5.024,5.024,0,0,0,.028-.587c0-.186-.012-.385-.032-.587v-.047a6.505,6.505,0,0,0-.31-1.456A6.821,6.821,0,0,0,26.781,14l-.011-.018h0l-.02-.034c-.081-.136-.171-.273-.269-.408s-.193-.256-.3-.384l-.017-.021h0l-.017-.02c-.135-.16-.278-.307-.388-.418h0l-.024-.024c-.048-.048-.1-.093-.146-.136l-.069-.062h0c-.069-.062-.141-.118-.2-.165l-.066-.052c-.112-.089-.231-.172-.364-.259-.117-.076-.242-.151-.383-.229l-.026-.015c-.083-.047-.17-.092-.26-.134s-.176-.079-.27-.114a5.483,5.483,0,0,0-.558-.179h-.032a5.414,5.414,0,0,0-.6-.119h-.03a2.9,2.9,0,0,0-.4-.027,4.586,4.586,0,0,0-.8.08,1.589,1.589,0,0,1-.271.025A1.237,1.237,0,0,1,21,11.267a1.082,1.082,0,0,1-.244-.082h0l-.014-.007a.989.989,0,0,1-.208-.134,1.062,1.062,0,0,1-.161-.169,2.181,2.181,0,0,1-.238-.42c-.046-.1-.1-.205-.149-.305a2.249,2.249,0,0,0-.18-.287l-.064-.106h0c-.1-.137-.218-.283-.369-.459l-.048-.058c-.065-.078-.126-.145-.186-.206a2.2,2.2,0,0,0-.206-.185c-.03-.024-.058-.049-.079-.068-.07-.062-.143-.119-.217-.175l-.024-.018a6.966,6.966,0,0,0-1.132-.7,6.619,6.619,0,0,0-.611-.264,6.355,6.355,0,0,0-.636-.2H16.2c-.149-.039-.27-.066-.383-.085a2.318,2.318,0,0,0-.39-.037h-.52a4.908,4.908,0,0,0-.8.062c-.13.021-.259.048-.387.081s-.259.072-.388.118l-.092.032a6.089,6.089,0,0,0-.625.251,5.774,5.774,0,0,0-.592.32L12,8.184h0a7.756,7.756,0,0,0-.644.447l-.009.007h0l-.009.007c-.064.049-.148.115-.228.189l-.047.042c-.075.064-.144.133-.209.2l-.062.062a2.746,2.746,0,0,0-.227.234l-.034.04c-.073.085-.144.172-.209.262l-.009.013h0l-.007.01h0a3.893,3.893,0,0,0-.273.418l-.008.015-.006.011a2.754,2.754,0,0,0-.142.293,1.964,1.964,0,0,1-.115.232,1.319,1.319,0,0,1-.142.2,1.143,1.143,0,0,1-.4.3H9.211l-.011,0a.8.8,0,0,1-.188.056,1.14,1.14,0,0,1-.2.015H8.767a2.369,2.369,0,0,1-.386-.034,4.164,4.164,0,0,0-.679-.055,4.028,4.028,0,0,0-.52.033,3.463,3.463,0,0,0-.5.1l-.088.024h0a5.108,5.108,0,0,0-.68.233,4.757,4.757,0,0,0-.638.33l-.027.016c-.154.095-.3.2-.445.3a5.313,5.313,0,0,0-.412.346l-.077.068c-.057.05-.109.1-.165.159l-.052.052a2.261,2.261,0,0,0-.181.2c-.021.026-.044.052-.074.085-.06.066-.114.135-.163.2l-.025.032h0v.006l-.006.008c-.088.114-.17.227-.246.339s-.156.238-.222.356l-.012.021c-.079.136-.149.27-.231.432l-.007.014v.009c-.044.085-.087.178-.14.3l-.013.03a6.486,6.486,0,0,0-.221.611c-.061.2-.116.411-.163.628l-.019.084c-.019.087-.035.18-.049.287v.045l-.034.156v.043l-.014.119v.035a5.336,5.336,0,0,0-.027.869,5.7,5.7,0,0,0,.109.862l.01.051c.007.036.015.075.025.123v.011h0v.01h0a3.29,3.29,0,0,0,.1.377c.01.032.02.064.029.1v.007a4.47,4.47,0,0,0,.192.51,5.022,5.022,0,0,0,.25.485l.006.011h0l.008.013c.056.1.119.193.185.29s.133.184.205.276l.017.021.006.008h0c.048.059.1.119.158.183l.084.094.052.059a1.5,1.5,0,0,1,.137.178,1.232,1.232,0,0,1,.1.192,1.08,1.08,0,0,1,.085.431v.044a1.089,1.089,0,0,1-.021.242,1.152,1.152,0,0,1-.072.216,1.384,1.384,0,0,1-.111.2,1.805,1.805,0,0,1-.142.186,3.14,3.14,0,0,0-.243.321,3.778,3.778,0,0,0-.2.347,5.409,5.409,0,0,0-.311.742l-.029.084c-.053.154-.1.315-.144.493-.038.155-.073.319-.106.5l-.007.036c-.03.165-.056.332-.077.5s-.04.334-.053.5v.026c0,.056-.009.113-.012.176v.027c-.012.192-.013.383-.013.578v.025c0,.335.012.614.038.88v.014h0v.014c.022.221.045.391.074.549l.014.078c.037.207.075.392.116.565.047.2.1.38.154.555l.014.043a5.092,5.092,0,0,0,.2.517c.039.087.081.17.123.248s.094.162.143.236l.006.008v.013a2.371,2.371,0,0,0,.323.385,3.134,3.134,0,0,1,.214.229,1.436,1.436,0,0,1,.173.26l.011.022a.7.7,0,0,1,.055.153.781.781,0,0,1,.019.161v.19a.9.9,0,0,1-.022.253.862.862,0,0,1-.1.233c-.025.043-.048.087-.07.13h0L3.948,33l-.018.033-.011.021c-.047.089-.094.181-.131.256h0l-.035.069h0l-.009.018c-.085.168-.165.346-.241.527s-.141.356-.205.542V34.5h0l-.007.019v.008h0v.012c-.069.2-.124.417-.173.616l-.027.108c-.038.151-.07.29-.1.427v.035c-.015.073-.028.147-.039.208l0,.028h0c-.046.26-.076.528-.1.759v.025a7.277,7.277,0,0,0-.056,1.18,5.018,5.018,0,0,0,.071.589,3.689,3.689,0,0,0,.147.559v.007h0v.014a3.77,3.77,0,0,0,.2.463l-.023.012a.548.548,0,0,1-.064-.034l-.04-.023L3.066,39.5h0l-.023-.013L3,39.463c-.127-.074-.257-.153-.4-.24l-.007-.009h0L2.575,39.2l-.21-.132-.072-.042c-.252-.158-.522-.338-.828-.549l-.02-.014H1.439c-.142-.1-.281-.2-.413-.294h0L1,38.147H1l-.022-.016-.019-.014-.007,0L.9,38.071a.825.825,0,0,0-.151-.1.338.338,0,0,1-.187-.177,1.441,1.441,0,0,1-.013-.378V37.2c0-.1.006-.2.012-.34v-.11c0-.137.014-.261.028-.382v-.027c.028-.256.07-.515.106-.739v-.027c.035-.218.08-.444.134-.671s.11-.438.175-.661l.008-.029c.078-.263.163-.523.255-.774s.2-.511.305-.756a.415.415,0,0,0,.058-.218.17.17,0,0,0-.038-.049,1.864,1.864,0,0,1-.162-.234l-.015-.024-.056-.088a5.489,5.489,0,0,1-.277-.5l-.006-.013h0l-.007-.014a6,6,0,0,1-.416-1.136c-.008-.03-.017-.06-.023-.082-.043-.144-.082-.292-.119-.443s-.067-.3-.1-.448c-.055-.285-.1-.589-.136-.905v-.037a4.63,4.63,0,0,1-.026-.521v-.292h0V26.652c0-.207,0-.39.013-.558.011-.2.03-.382.057-.555v-.027h0v-.029c.008-.055.017-.113.03-.187v-.033c.045-.272.091-.515.142-.742v-.028c.027-.122.061-.25.1-.394L.6,24.058a8.767,8.767,0,0,1,.465-1.271l.009-.019.008-.017c.055-.119.1-.218.155-.318a3.234,3.234,0,0,1,.177-.305.1.1,0,0,0,.011-.042.135.135,0,0,0-.011-.043c-.019-.033-.04-.064-.064-.1l-.017-.025h0l-.062-.092c-.087-.128-.178-.265-.261-.408l-.023-.038-.011-.019a6.48,6.48,0,0,1-.33-.643A7.153,7.153,0,0,1,.4,20.038c-.073-.222-.139-.456-.193-.7s-.1-.467-.136-.71c-.008-.055-.017-.1-.025-.154C.03,18.387.023,18.3.016,18.2v-.022h0v0C0,17.945,0,17.729,0,17.467v-.028c0-.165,0-.3.006-.429,0-.155.013-.3.025-.428v-.027a7.2,7.2,0,0,1,.11-.775l.011-.056v-.019c.025-.128.053-.254.083-.378s.065-.249.106-.375l0-.017v-.012h0c.066-.222.141-.445.222-.66s.173-.433.272-.641.207-.419.322-.618.24-.4.37-.59l.019-.028c.094-.137.184-.261.276-.379l.051-.066c.062-.08.131-.162.216-.262l.051-.06c.068-.081.14-.161.218-.242a1.479,1.479,0,0,0,.1-.113,1.613,1.613,0,0,1,.121-.128l.022-.022c.045-.045.088-.085.131-.121s.054-.051.08-.077h0c.047-.047.1-.093.151-.14l.029-.025L3,10.749c.078-.067.143-.122.205-.17l.009-.007.006,0h0c.038-.03.076-.058.118-.088a.358.358,0,0,0,.158-.167.655.655,0,0,0-.014-.144l-.01-.066c-.01-.061-.021-.122-.03-.167-.02-.107-.036-.215-.052-.32V9.556C3.35,9.278,3.3,8.95,3.28,8.62v-.07a.4.4,0,0,0-.009-.064c-.008-.05-.011-.1-.014-.149h0V8.225L3.25,8.119c0-.076-.009-.152-.013-.209V7.876c-.012-.2-.012-.4-.011-.588h0v-.14c0-.412.01-.75.033-1.065V6.041c.017-.229.04-.505.092-.817a8.142,8.142,0,0,1,.229-.988c.118-.4.271-.835.472-1.335.106-.264.226-.551.359-.852s.291-.649.458-1c.027-.031.053-.064.077-.095A2.375,2.375,0,0,1,5.327.58L5.349.558A2.235,2.235,0,0,1,5.682.322,2.415,2.415,0,0,1,6.061.147,2.464,2.464,0,0,1,6.47.038,2.372,2.372,0,0,1,6.887,0a2.186,2.186,0,0,1,.391.035,1.983,1.983,0,0,1,.376.108h.028A2.9,2.9,0,0,1,8.046.32a3.123,3.123,0,0,1,.34.226A3.228,3.228,0,0,1,8.7.815a3.18,3.18,0,0,1,.27.3l.055.065a5.623,5.623,0,0,1,.807,1.34,7.812,7.812,0,0,1,.28.743c.078.242.147.5.2.75.009.04.02.081.035.131.025.086.044.175.061.262v.043c.01.051.022.1.036.167.024.108.047.222.074.371v.025c.028.155.051.3.069.443v.1l.016.119v.04a.588.588,0,0,0,.015.1,3.138,3.138,0,0,1,.034.365v.028h0V6.22h0v.013a.063.063,0,0,0,.013.044.3.3,0,0,0,.106-.036l.027-.015H10.8l.022-.012.031-.017.184-.1c.183-.106.374-.206.566-.3s.387-.174.585-.25.4-.144.6-.205.41-.115.619-.161l.036-.008.185-.039h.024c.175-.034.37-.06.612-.084h.044c.233-.022.463-.033.683-.033a5.869,5.869,0,0,1,.738.045h.026c.174.022.346.048.511.078s.342.067.505.107.337.088.5.139.33.111.487.174l.082.032.029.011h.006l.019.007h.024c.062.024.122.051.187.082l.108.049c.136.062.27.127.4.193s.261.141.388.215c.058.034.112.065.163.093l.019.01H19.2l.015.008a.079.079,0,0,0,.044.016h.023a.321.321,0,0,0,.016-.091V6.108c.018-.239.046-.485.087-.752.036-.232.08-.476.137-.745l.007-.034c.027-.132.056-.257.092-.408h0l.011-.048a8.973,8.973,0,0,1,.312-.941,9.129,9.129,0,0,1,.379-.914l.017-.035A5.342,5.342,0,0,1,20.983,1.2l.007-.009L21,1.177c.051-.064.106-.128.166-.2l.045-.051a2.029,2.029,0,0,1,.156-.162l.026-.024a3.127,3.127,0,0,1,.555-.414,2.612,2.612,0,0,1,.31-.154,2.355,2.355,0,0,1,.329-.109h.009l.027-.007A2.17,2.17,0,0,1,23.135,0a2.354,2.354,0,0,1,.313.021,2.383,2.383,0,0,1,.308.063,2.315,2.315,0,0,1,.3.1,2.163,2.163,0,0,1,.269.147c.089.056.175.117.259.18s.163.132.24.2l.1.088a2.086,2.086,0,0,1,.159.16c.047.052.094.109.144.172l.019.025a5.284,5.284,0,0,1,.368.544,6.187,6.187,0,0,1,.3.584c.088.193.169.4.244.612s.135.411.192.628h0l.013.047c.058.211.109.422.152.624s.082.428.11.633a.545.545,0,0,0,.013.084,12.125,12.125,0,0,1,.143,1.469c.01.256.014.518.012.8s-.009.562-.023.878v.075c0,.1-.012.2-.021.311h0v.028c-.022.279-.048.536-.079.785v.034c-.018.141-.04.275-.067.41-.014.071-.025.144-.036.214h0v.013c-.006.038-.013.077-.021.121a1.012,1.012,0,0,0-.019.123.463.463,0,0,1-.009.06.175.175,0,0,0,.02.135.911.911,0,0,0,.127.1l.085.066.051.04h0l.009.007c.085.066.171.141.281.24l.073.064c.045.039.087.081.128.123l.007.007c.033.032.067.063.1.091a1.431,1.431,0,0,1,.142.145c.028.032.059.065.1.107s.083.086.119.128.05.056.072.08c.039.044.08.092.131.155.025.031.052.062.072.085.092.107.176.221.258.332h0l.021.028c.089.122.164.23.232.333l.045.068c.139.211.27.432.391.655s.233.459.334.7.194.484.275.731.153.506.212.765l0,.022h0v.017l.008.034h0l.007.031.022.1c.047.2.085.4.114.618s.048.414.059.631.015.417.013.634c0,.2-.011.414-.025.628v.04a7.594,7.594,0,0,1-.206,1.272v.039a6.953,6.953,0,0,1-.211.692v.023c-.066.187-.147.386-.247.6l-.007.015h0l-.008.018c-.076.165-.162.333-.257.5s-.191.317-.3.475l-.016.024h0l-.013.019-.065.094-.03.044-.006.008L28.626,22a.122.122,0,0,0-.029.086.547.547,0,0,0,.054.1h0a6.473,6.473,0,0,1,.367.734l.009.02v.006c.093.209.177.426.251.643l.011.032a4.208,4.208,0,0,1,.131.422l.026.1h0c.038.139.073.287.112.468v.01h0v.015c.035.162.068.323.09.487.011.083.023.151.035.212.021.106.033.214.045.32h0v.023h0a.591.591,0,0,0,.01.082c.015.111.025.224.031.345v.03c.014.3.013.6.012.9h0v.759a6.613,6.613,0,0,1-.063.986l0,.037c-.058.4-.125.758-.205,1.1-.007.031-.015.063-.021.093-.025.112-.058.221-.086.314-.017.057-.033.112-.047.163a3.045,3.045,0,0,1-.141.413c-.017.042-.033.084-.048.122a5.26,5.26,0,0,1-.258.589l-.042.082a5.649,5.649,0,0,1-.323.548l-.016.024h0v0a1.584,1.584,0,0,1-.1.139.176.176,0,0,0-.044.09.668.668,0,0,0,.056.156h0l.031.069.018.039c.128.286.235.551.327.809.05.141.1.28.138.415s.082.284.115.421c.009.036.019.071.031.11.028.1.05.192.074.3v.007l0,.023c.067.3.136.617.178.935.006.042.013.082.021.122.014.068.022.138.029.2l.009.077v.021h0v.013c.006.052.012.1.017.141l0,.042a.521.521,0,0,0,.011.075c.007.053.01.1.012.145v.029c.008.165.013.335.016.519v.433c.008.17.008.17-.043.233a.973.973,0,0,1-.164.122A1.019,1.019,0,0,0,29.18,38l-.049.036-.027.02-.083.061L29,38.14c-.243.177-.506.36-.8.557h0l-.021.014c-.162.108-.323.212-.479.31l-.016.01h0l-.015.009c-.239.152-.5.307-.837.5ZM22.487,8.93a3.076,3.076,0,0,1,.365.015c.129.015.233.022.363.04h.032c.113.014.232.035.365.064.1.023.216.049.36.086L24,9.142l.136.036.026.007.048.013a.5.5,0,0,0,.132.021h.032a.207.207,0,0,0,.035-.1V9.1h0v-.01c0-.034.01-.065.014-.1l0-.037c.027-.194.049-.4.068-.624h0V8.307c.033-.388.049-.747.049-1.1V6.965h0a5.81,5.81,0,0,0-.045-.929.327.327,0,0,1,0-.055V5.857a.309.309,0,0,0-.009-.087.459.459,0,0,1-.011-.086v0l-.007-.065-.009-.078c-.011-.1-.025-.209-.047-.324-.009-.048-.017-.093-.023-.137-.023-.164-.055-.334-.1-.52-.035-.154-.076-.317-.131-.513l-.006-.023a5.116,5.116,0,0,0-.5-1.205l-.015-.026V2.785c-.111-.187-.278-.471-.49-.525h-.079a.377.377,0,0,0-.165.027.364.364,0,0,0-.139.132,7.152,7.152,0,0,0-.44.871h0c-.012.027-.025.055-.038.082a3.014,3.014,0,0,0-.143.329c-.037.1-.076.2-.121.338v.027c-.036.108-.066.2-.09.293h0c-.011.043-.023.088-.036.131-.033.106-.063.222-.094.356l-.008.034q-.1.449-.169.9c-.044.3-.077.609-.095.905l0,.086c-.022.336-.024.671-.024,1.012v.459h0v.1l.036.054.084.127.022.033,0,.008.011.017.056.085.018.027.034.051.036.052a1.006,1.006,0,0,0,.065.1.175.175,0,0,0,.14.042h.474ZM6.772,2.243a.158.158,0,0,0-.1.033.475.475,0,0,0-.1.124c-.079.121-.181.325-.351.664l-.006.012L6.2,3.09a3.971,3.971,0,0,0-.169.394c-.044.116-.086.241-.138.406v.044c-.046.148-.089.3-.128.454s-.072.305-.1.46c-.058.3-.1.613-.132.933l-.007.075a2.906,2.906,0,0,0-.047.357v.026c-.022.3-.025.593-.025.84V7.1c0,.2,0,.365.006.534v.046h0V7.7a1,1,0,0,0,.012.188c0,.019.006.043.008.068v.052c0,.093.009.188.016.286v.062a1.043,1.043,0,0,0,.016.154c0,.026.008.054.01.088.01.131.021.236.035.334v.04a1.2,1.2,0,0,0,.059.245h.04a.905.905,0,0,0,.254-.056c.154-.043.313-.081.475-.113S6.7,9,6.864,8.978a9.235,9.235,0,0,1,.965-.057h.265a.641.641,0,0,0,.074-.1l.026-.038.049-.072A.99.99,0,0,1,8.326,8.6a.722.722,0,0,0,.11-.16.638.638,0,0,0,.055-.162A1.007,1.007,0,0,0,8.508,8.1V7.735c0-.112,0-.228-.009-.356V7.269c0-.148-.01-.319-.019-.486V6.753c-.009-.162-.021-.31-.038-.454-.006-.054-.013-.11-.019-.167l-.008-.078V5.986L8.406,5.9V5.882A.6.6,0,0,0,8.4,5.8a.213.213,0,0,1-.016-.06V5.671c-.018-.123-.038-.246-.059-.368V5.241a2.4,2.4,0,0,0-.051-.246c-.011-.039-.02-.071-.027-.1a8.7,8.7,0,0,0-.258-.922l-.017-.048h0a6.714,6.714,0,0,0-.411-.934c-.043-.082-.088-.158-.133-.226a1.962,1.962,0,0,0-.151-.2,1.366,1.366,0,0,0-.17-.172,1,1,0,0,0-.193-.125h0a.645.645,0,0,0-.139-.025Z" transform="translate(0 0)" fill="#fff"/>
      <path id="Path_5" data-name="Path 5" d="M-506.112-.005h.034c.2,0,.393.008.589.019h.039a6.8,6.8,0,0,1,.779.082l.036.006a5.857,5.857,0,0,1,.616.138l.025.007A6.361,6.361,0,0,1-502.828.7l.076.037a5.484,5.484,0,0,1,1.133.742l.021.018c.15.126.291.259.43.4l.018.017c.067.067.132.135.192.206l.03.034a5.026,5.026,0,0,1,.632.93l.016.029a4.555,4.555,0,0,1,.228.516l.011.028a3.389,3.389,0,0,1,.224,1.2v.281a3.5,3.5,0,0,1-.09.892c-.006.024-.011.048-.016.073a3.943,3.943,0,0,1-.962,1.738l-.055.061a4.73,4.73,0,0,1-1.342,1l-.031.016a5.221,5.221,0,0,1-1.15.442l-.092.024c-.152.039-.3.073-.457.1l-.035.006a7.2,7.2,0,0,1-1.252.077h-1.118c-.215,0-.43,0-.645-.007h-.03a5.085,5.085,0,0,1-1.239-.172l-.08-.021a5.435,5.435,0,0,1-2.115-1.077l-.018-.015c-.1-.085-.2-.173-.29-.267l-.063-.063a2.789,2.789,0,0,1-.221-.247l-.03-.036A4.042,4.042,0,0,1-512,5.908V5.875l-.02-.093-.006-.027a2.168,2.168,0,0,1-.028-.422V4.787a2.186,2.186,0,0,1,.026-.365V4.4A4.051,4.051,0,0,1-511.6,3.12l.035-.068a4.721,4.721,0,0,1,.592-.87l.016-.019a4.312,4.312,0,0,1,.418-.44l.061-.056c.081-.076.163-.148.249-.217l.039-.032a4.353,4.353,0,0,1,.368-.27l.025-.017a6.724,6.724,0,0,1,1.613-.785l.036-.013a5.345,5.345,0,0,1,.9-.234h.028c.148-.024.3-.039.446-.053.074-.007.148-.015.221-.025a3.278,3.278,0,0,1,.441-.027ZM-509.326,2.7l-.032.029c-.08.071-.156.147-.231.221l-.031.031a2.608,2.608,0,0,0-.193.219l-.03.036a3.489,3.489,0,0,0-.376.545l-.014.024a1.566,1.566,0,0,0-.133.3.773.773,0,0,1-.04.1,1.441,1.441,0,0,0-.06.2l-.009.034a2.5,2.5,0,0,0,.27,1.894,2.743,2.743,0,0,0,.3.4l.03.034a3.007,3.007,0,0,0,.4.384l.02.016a3.935,3.935,0,0,0,.572.367l.023.012a4.253,4.253,0,0,0,1.713.473l.083,0c.182.012.365.011.547.011h1.047c.276,0,.55-.009.825-.026h.042a4.048,4.048,0,0,0,1.572-.462l.037-.019a3.212,3.212,0,0,0,.6-.376l.034-.027c.086-.07.163-.146.241-.222l.031-.031a2.488,2.488,0,0,0,.192-.219l.021-.027a2.777,2.777,0,0,0,.536-1.227l.007-.035a1.415,1.415,0,0,0,.019-.275V5.066a1.961,1.961,0,0,0-.026-.352l-.006-.033A3.345,3.345,0,0,0-502.5,2.747c-.026-.022-.051-.045-.076-.068-.072-.065-.148-.125-.225-.182l-.022-.017a4.97,4.97,0,0,0-1.51-.727l-.038-.012a5.444,5.444,0,0,0-.67-.151l-.037-.007a5.015,5.015,0,0,0-.858-.054h-.036A5.069,5.069,0,0,0-509.325,2.7Z" transform="translate(520.939 16.643)" fill="#fff"/>
      <path id="Path_8" data-name="Path 8" d="M-213.553-27.146a1.678,1.678,0,0,1,.386.477c.016.03.034.059.052.088a.758.758,0,0,1,.089.449V-26a1.289,1.289,0,0,1-.068.449l-.012.034c-.01.028-.02.054-.031.081l-.012.029a1.831,1.831,0,0,1-.915,1,1.539,1.539,0,0,1-1.163-.029,1.509,1.509,0,0,1-.758-.824c-.017-.05-.033-.1-.047-.151l-.013-.04a.937.937,0,0,1-.015-.227v-.019a1.779,1.779,0,0,1,.109-.637l.011-.028a1.746,1.746,0,0,1,.349-.575l.019-.02a1.485,1.485,0,0,1,2.02-.18Z" transform="translate(221.877 44.38)" fill="#fff"/>
      <path id="Path_9" data-name="Path 9" d="M-200.607-27.388l.019.016a1.722,1.722,0,0,1,.491.646l.019.04a2.147,2.147,0,0,1,.121.437l.01.045a1.317,1.317,0,0,1-.033.629l-.013.039a1.551,1.551,0,0,1-.347.553l-.022.024a1.376,1.376,0,0,1-.952.4,1.4,1.4,0,0,1-1.1-.433l-.022-.021a1.966,1.966,0,0,1-.446-.732l-.011-.029c-.011-.03-.022-.06-.031-.09l-.01-.03a1.61,1.61,0,0,1-.036-.426v-.043a.864.864,0,0,1,.151-.57l.029-.049a1.528,1.528,0,0,1,.5-.508l.02-.013a1.47,1.47,0,0,1,1.661.116Z" transform="translate(224.123 44.621)" fill="#fff"/>
      <path id="Path_10" data-name="Path 10" d="M-113.45-21.888a.1.1,0,0,0,.088,0,.319.319,0,0,0,.051-.029l.029-.018.03-.019a1.023,1.023,0,0,1,.575-.2h.038a.552.552,0,0,1,.32.079l.032.022.028.02.021.015a.64.64,0,0,1,.211.357.634.634,0,0,1-.138.492c-.029.033-.06.064-.09.1l-.042.045a1.561,1.561,0,0,1-.347.266.349.349,0,0,0-.15.148,1.383,1.383,0,0,0,.044.441,1.3,1.3,0,0,1,.029.3v.044a.505.505,0,0,1-.121.373l-.022.024a.52.52,0,0,1-.378.152h-.157c-.368,0-.368,0-.514-.143a.63.63,0,0,1-.2-.386,1.423,1.423,0,0,1,.037-.249,2.455,2.455,0,0,0,.064-.473v-.033a.228.228,0,0,0-.022-.121.921.921,0,0,0-.134-.093,1.257,1.257,0,0,1-.615-.688.646.646,0,0,1,.116-.446.559.559,0,0,1,.332-.235,1.221,1.221,0,0,1,.883.255Z" transform="translate(128.365 42.369)" fill="#fff"/>
    </g>
  </g>
</svg>
