<svg xmlns="http://www.w3.org/2000/svg" width="48" height="48" viewBox="0 0 48 48">
  <g id="Group_2" data-name="Group 2" transform="translate(-748 794)">
    <circle id="Ellipse_1" data-name="Ellipse 1" cx="24" cy="24" r="24" transform="translate(748 -794)" fill="#f0f4f8"/>
    <g id="Group_1" data-name="Group 1" transform="translate(756.908 -789.828)">
      <g id="Group_1-2" data-name="Group 1" transform="translate(0 0)">
        <path id="Subtraction_1" data-name="Subtraction 1" d="M26.788,39.536h0l-.012-.023a.269.269,0,0,1,.02-.043h0l.014-.027.016-.031a3.213,3.213,0,0,0,.182-.49l0-.017h0V38.89a3.621,3.621,0,0,0,.135-.712c.021-.209.03-.439.03-.725v-.024c0-.2,0-.38-.014-.545-.011-.193-.028-.371-.053-.542-.007-.052-.014-.1-.02-.151-.014-.111-.029-.2-.047-.288-.007-.034-.013-.069-.019-.111-.021-.139-.055-.278-.087-.412h0l-.006-.026-.026-.108h0l0-.022c-.046-.2-.092-.367-.141-.527l-.015-.048c-.042-.135-.087-.269-.133-.4s-.1-.264-.153-.39v-.011h0v-.01c-.1-.235-.217-.468-.33-.7h0l-.007-.013h0v-.006l-.05-.1h0l-.04-.08c-.026-.052-.057-.112-.092-.168a.6.6,0,0,1-.08-.2.96.96,0,0,1-.012-.217v-.116a.884.884,0,0,1,.047-.373v-.017h0v-.012a1.265,1.265,0,0,1,.2-.3c.077-.09.161-.173.248-.258a2.045,2.045,0,0,0,.184-.208l.025-.032a3.052,3.052,0,0,0,.4-.705,3.735,3.735,0,0,0,.141-.382c.038-.114.075-.237.119-.388v-.034a6.682,6.682,0,0,0,.163-.733c.038-.223.07-.466.1-.745v-.027a8.427,8.427,0,0,0,.031-.853v-.026c0-.188,0-.436-.019-.683v-.033c-.009-.122-.019-.223-.034-.321-.008-.055-.014-.112-.02-.166v-.021c-.013-.113-.027-.205-.044-.293-.007-.036-.013-.076-.02-.124-.022-.158-.055-.31-.094-.478L27.267,25a5.454,5.454,0,0,0-.163-.583c-.012-.035-.023-.071-.033-.1V24.3a4.5,4.5,0,0,0-.245-.625l-.012-.025a3.893,3.893,0,0,0-.207-.38,2.753,2.753,0,0,0-.256-.349,2.079,2.079,0,0,1-.172-.227,1.525,1.525,0,0,1-.129-.244,1.249,1.249,0,0,1-.078-.264,1.035,1.035,0,0,1,.13-.731,1.594,1.594,0,0,1,.289-.372,1.2,1.2,0,0,0,.089-.1l.011-.013h0l.025-.029a3.836,3.836,0,0,0,.3-.392c.085-.127.168-.266.254-.422l.017-.032a4.8,4.8,0,0,0,.265-.574,5.622,5.622,0,0,0,.193-.6v-.018h0v-.015c.036-.134.068-.276.094-.42s.045-.28.06-.426v-.022h0v-.009a5.02,5.02,0,0,0,.028-.587c0-.186-.012-.384-.032-.587V16.8a6.5,6.5,0,0,0-.31-1.455,6.815,6.815,0,0,0-.625-1.351l-.011-.018h0l-.02-.034c-.081-.135-.171-.273-.269-.407s-.193-.256-.3-.383l-.017-.021h0l-.017-.02c-.134-.159-.278-.307-.387-.417h0l-.024-.024c-.048-.048-.1-.093-.145-.135l-.069-.062h0c-.069-.062-.14-.118-.2-.165l-.066-.052c-.112-.089-.231-.172-.364-.259-.117-.076-.242-.15-.382-.229l-.026-.015c-.083-.047-.17-.092-.26-.133s-.176-.079-.27-.114a5.478,5.478,0,0,0-.558-.179h-.032a5.409,5.409,0,0,0-.6-.119h-.03a2.9,2.9,0,0,0-.4-.027,4.582,4.582,0,0,0-.8.08,1.588,1.588,0,0,1-.271.025,1.236,1.236,0,0,1-.253-.025,1.081,1.081,0,0,1-.244-.082h0l-.014-.007a.988.988,0,0,1-.208-.133,1.061,1.061,0,0,1-.16-.169,2.179,2.179,0,0,1-.238-.419c-.046-.1-.1-.205-.148-.3a2.248,2.248,0,0,0-.18-.287l-.064-.106h0c-.1-.136-.218-.283-.369-.458L19.3,9.233c-.065-.078-.125-.144-.186-.206a2.2,2.2,0,0,0-.206-.185c-.03-.024-.058-.049-.079-.068-.07-.062-.142-.119-.217-.175l-.024-.018a6.959,6.959,0,0,0-1.13-.7,6.612,6.612,0,0,0-.611-.264,6.349,6.349,0,0,0-.635-.2h-.03c-.148-.039-.27-.066-.382-.085a2.316,2.316,0,0,0-.389-.037h-.52a4.9,4.9,0,0,0-.8.062c-.129.021-.259.048-.386.081s-.259.072-.387.118l-.092.032a6.083,6.083,0,0,0-.624.251,5.769,5.769,0,0,0-.592.32l-.024.015h0a7.749,7.749,0,0,0-.643.446l-.009.007h0l-.009.007c-.064.049-.147.115-.228.189l-.047.042c-.075.064-.143.132-.209.2l-.062.062a2.743,2.743,0,0,0-.227.234l-.034.04c-.073.085-.143.172-.209.262l-.009.013h0l-.007.01h0a3.889,3.889,0,0,0-.273.417l-.008.015-.006.011a2.752,2.752,0,0,0-.141.293,1.962,1.962,0,0,1-.115.232,1.318,1.318,0,0,1-.141.2,1.142,1.142,0,0,1-.4.3H9.2l-.011,0A.8.8,0,0,1,9,11.214a1.139,1.139,0,0,1-.2.015H8.759a2.368,2.368,0,0,1-.385-.034A4.16,4.16,0,0,0,7.7,11.14a4.024,4.024,0,0,0-.52.033,3.46,3.46,0,0,0-.5.1L6.59,11.3h0a5.1,5.1,0,0,0-.679.233,4.753,4.753,0,0,0-.637.33l-.027.016c-.153.095-.3.2-.444.3a5.308,5.308,0,0,0-.411.346l-.077.068c-.057.05-.109.1-.165.158L4.1,12.8a2.259,2.259,0,0,0-.181.2c-.021.026-.044.052-.074.085-.06.066-.114.134-.163.2l-.025.032h0v.006l-.006.008c-.088.114-.17.227-.246.339s-.155.238-.222.356l-.012.021c-.079.135-.148.27-.231.431l-.007.014V14.5c-.044.085-.087.178-.139.3l-.013.03a6.48,6.48,0,0,0-.221.611c-.061.2-.116.41-.163.627l-.019.084c-.019.087-.035.18-.049.287v.045l-.034.155v.043l-.014.119v.035a5.331,5.331,0,0,0-.027.869,5.693,5.693,0,0,0,.109.862l.01.051c.007.036.015.075.025.123v.011h0v.01h0a3.287,3.287,0,0,0,.1.376c.01.032.02.064.029.1v.007a4.466,4.466,0,0,0,.192.51,5.017,5.017,0,0,0,.25.485l.006.011h0l.008.013c.056.1.119.193.185.29s.132.184.205.276l.017.021.006.008h0c.048.059.1.119.157.183l.084.094.052.059a1.494,1.494,0,0,1,.136.178,1.231,1.231,0,0,1,.1.192,1.079,1.079,0,0,1,.085.43v.044a1.088,1.088,0,0,1-.021.242,1.151,1.151,0,0,1-.072.216,1.382,1.382,0,0,1-.111.2,1.8,1.8,0,0,1-.141.186,3.137,3.137,0,0,0-.243.321,3.774,3.774,0,0,0-.2.347,5.4,5.4,0,0,0-.311.741l-.029.084c-.053.153-.1.315-.143.493-.038.154-.073.319-.106.5l-.007.036c-.03.165-.056.332-.077.5s-.04.334-.053.5v.026c0,.056-.009.113-.012.176v.027c-.012.192-.013.382-.013.578v.025c0,.335.012.614.038.879v.014h0v.014c.022.221.045.39.074.549l.014.078c.037.207.075.391.116.565.047.2.1.379.153.555l.014.043a5.088,5.088,0,0,0,.2.517c.039.087.081.17.123.248s.094.162.142.236l.006.008v.013a2.369,2.369,0,0,0,.323.384,3.132,3.132,0,0,1,.214.229,1.435,1.435,0,0,1,.173.26l.011.022a.7.7,0,0,1,.055.152.78.78,0,0,1,.019.161v.19a.9.9,0,0,1-.022.253.861.861,0,0,1-.1.233c-.025.043-.048.087-.07.129h0l-.006.012L3.926,33l-.011.021c-.047.089-.094.181-.13.256h0l-.035.069h0l-.009.018c-.085.168-.165.346-.241.527s-.14.356-.205.542v.037h0l-.007.019v.008h0v.012c-.069.2-.124.416-.173.616l-.027.108c-.038.15-.07.29-.1.426v.035c-.015.073-.028.146-.039.208l0,.028h0c-.046.26-.076.528-.1.758v.025a7.271,7.271,0,0,0-.056,1.179,5.014,5.014,0,0,0,.071.589,3.685,3.685,0,0,0,.146.559v.007h0v.014a3.766,3.766,0,0,0,.2.462l-.023.012a.547.547,0,0,1-.064-.034l-.04-.023-.016-.009h0l-.023-.013L3,39.427c-.126-.074-.257-.152-.4-.24l-.007-.009h0l-.017-.011-.21-.131-.072-.042c-.252-.157-.522-.338-.828-.549l-.02-.014H1.437c-.141-.1-.281-.2-.412-.294h0L1,38.112H1L.974,38.1l-.019-.014-.007,0-.054-.041a.823.823,0,0,0-.15-.1.338.338,0,0,1-.187-.177,1.439,1.439,0,0,1-.013-.377v-.221c0-.1.006-.2.012-.34v-.11c0-.136.014-.261.028-.381V36.3c.028-.256.07-.515.106-.738v-.027c.035-.218.08-.443.133-.67s.11-.437.175-.66l.008-.029c.078-.263.163-.523.255-.773s.2-.511.3-.755a.414.414,0,0,0,.058-.218.17.17,0,0,0-.038-.049,1.862,1.862,0,0,1-.161-.234l-.015-.024-.056-.088a5.483,5.483,0,0,1-.277-.5l-.006-.013h0l-.007-.014a6,6,0,0,1-.415-1.135c-.008-.03-.017-.06-.023-.082C.583,30.153.544,30,.507,29.855s-.067-.3-.1-.447c-.055-.285-.1-.589-.135-.9v-.037a4.625,4.625,0,0,1-.026-.521v-.292h0V26.627c0-.207,0-.389.013-.558.011-.2.03-.381.057-.555v-.027h0v-.029c.008-.055.017-.113.03-.187v-.033c.045-.272.091-.515.141-.741V24.47c.027-.122.061-.25.1-.393L.6,24.036a8.759,8.759,0,0,1,.464-1.27l.009-.019.008-.017c.055-.119.1-.218.154-.318a3.231,3.231,0,0,1,.177-.3.1.1,0,0,0,.011-.042.134.134,0,0,0-.011-.043c-.019-.033-.04-.064-.064-.1L1.331,21.9h0l-.062-.092c-.087-.127-.178-.265-.261-.407l-.023-.038-.011-.019a6.474,6.474,0,0,1-.33-.642A7.146,7.146,0,0,1,.4,20.02c-.073-.222-.138-.455-.193-.7s-.1-.466-.135-.709c-.008-.055-.017-.1-.025-.153-.015-.09-.022-.179-.029-.279v-.022h0v0C0,17.928,0,17.713,0,17.451v-.028c0-.165,0-.3.006-.428,0-.154.013-.3.025-.427v-.027a7.2,7.2,0,0,1,.11-.774l.011-.056v-.019c.025-.127.053-.254.083-.377S.3,15.066.34,14.94l0-.017v-.012h0c.066-.222.14-.444.222-.659s.173-.432.272-.64.207-.418.322-.618.24-.4.37-.59l.019-.028c.094-.136.184-.261.276-.378l.051-.066c.062-.08.13-.162.216-.262l.051-.06c.068-.081.139-.16.218-.242a1.477,1.477,0,0,0,.1-.113,1.611,1.611,0,0,1,.121-.127l.022-.022c.045-.045.088-.085.13-.121s.054-.051.08-.077h0c.047-.047.1-.093.15-.139l.029-.025L3,10.739c.078-.067.142-.122.205-.17l.009-.007.006,0h0c.038-.03.076-.058.118-.088a.358.358,0,0,0,.157-.167.654.654,0,0,0-.014-.143l-.01-.066c-.01-.061-.021-.122-.03-.167-.02-.107-.036-.215-.052-.32V9.548c-.042-.278-.088-.606-.112-.935v-.07a.4.4,0,0,0-.009-.064c-.008-.05-.011-.1-.014-.148h0V8.217l-.007-.106c0-.076-.009-.151-.013-.209V7.869c-.012-.2-.012-.4-.011-.588h0V7.141c0-.411.01-.749.033-1.064V6.036c.017-.229.04-.5.092-.817a8.134,8.134,0,0,1,.229-.987c.118-.4.271-.835.471-1.334.106-.264.226-.551.359-.852s.291-.648.457-1c.027-.031.053-.064.077-.095A2.373,2.373,0,0,1,5.322.58L5.345.558A2.233,2.233,0,0,1,5.677.322,2.412,2.412,0,0,1,6.056.146,2.462,2.462,0,0,1,6.464.038,2.369,2.369,0,0,1,6.88,0a2.184,2.184,0,0,1,.39.035,1.981,1.981,0,0,1,.375.108h.028A2.9,2.9,0,0,1,8.039.32a3.121,3.121,0,0,1,.34.226,3.225,3.225,0,0,1,.309.269,3.177,3.177,0,0,1,.27.3l.055.065a5.617,5.617,0,0,1,.806,1.339,7.8,7.8,0,0,1,.28.742c.078.242.146.5.2.749.009.04.02.081.035.13.025.086.044.175.061.262v.043c.01.051.022.1.036.167.024.108.047.222.074.371v.025c.028.154.051.3.069.442v.1l.016.119v.04a.588.588,0,0,0,.015.1,3.136,3.136,0,0,1,.034.365V6.2h0v.012h0v.013a.063.063,0,0,0,.013.044.3.3,0,0,0,.106-.036l.027-.015h.008l.022-.012.031-.017.184-.1c.183-.106.374-.206.566-.3s.386-.174.585-.25.4-.143.6-.205.409-.115.619-.16l.036-.008.185-.039h.024c.175-.034.37-.06.612-.084H14.3c.233-.022.462-.033.682-.033a5.863,5.863,0,0,1,.737.045h.026c.174.022.346.048.511.078s.342.067.5.107.337.088.5.138.33.111.487.174l.082.032.029.011h.006l.019.007h.024c.062.024.122.051.187.082l.108.049c.135.062.27.126.4.193s.261.14.387.215c.058.034.112.065.163.093l.019.01h.007l.015.008a.079.079,0,0,0,.044.016h.023a.321.321,0,0,0,.016-.091V6.1c.018-.239.046-.485.087-.751.036-.232.08-.475.136-.744l.007-.034c.027-.131.056-.257.092-.407h0l.011-.048a8.965,8.965,0,0,1,.312-.94,9.121,9.121,0,0,1,.378-.913l.017-.035A5.337,5.337,0,0,1,20.964,1.2l.007-.009.008-.01c.051-.064.106-.127.166-.2L21.19.926a2.028,2.028,0,0,1,.155-.161l.026-.024a3.125,3.125,0,0,1,.555-.413,2.609,2.609,0,0,1,.31-.153,2.353,2.353,0,0,1,.329-.109h.009L22.6.059A2.168,2.168,0,0,1,23.114,0a2.352,2.352,0,0,1,.312.021,2.38,2.38,0,0,1,.308.063,2.312,2.312,0,0,1,.3.1A2.161,2.161,0,0,1,24.3.33c.089.056.175.117.259.18s.163.131.24.2L24.9.8a2.084,2.084,0,0,1,.158.159c.047.052.094.109.143.172l.019.025a5.279,5.279,0,0,1,.368.544,6.182,6.182,0,0,1,.3.584c.088.193.169.4.244.612s.134.41.192.627h0l.013.047c.058.211.109.421.151.624s.082.427.11.632a.544.544,0,0,0,.013.084,12.114,12.114,0,0,1,.142,1.468c.01.256.014.518.012.8s-.009.562-.023.877v.075c0,.1-.012.2-.021.311h0v.028c-.022.279-.048.536-.079.784v.034c-.018.14-.04.275-.067.409-.014.071-.025.143-.036.214h0v.013c-.006.038-.013.077-.021.121a1.011,1.011,0,0,0-.019.123.463.463,0,0,1-.009.06.175.175,0,0,0,.02.134.91.91,0,0,0,.126.1l.085.066.051.04h0l.009.007c.085.066.171.14.281.24l.073.064c.045.039.087.081.127.123L27.27,11c.033.032.067.063.1.091a1.43,1.43,0,0,1,.141.144c.028.032.059.065.1.107s.083.086.119.127.05.056.072.08c.039.044.08.092.13.154.025.031.052.062.072.085.092.107.176.221.258.332h0l.021.028c.089.122.164.23.232.333l.045.068c.138.211.27.431.39.654s.233.458.334.7.194.483.275.73.152.506.212.764l0,.022h0v.017l.008.034h0l.007.031.022.1c.047.2.085.4.114.618s.048.413.059.63.015.416.013.633c0,.2-.011.413-.025.627v.04a7.587,7.587,0,0,1-.206,1.271v.039a6.947,6.947,0,0,1-.211.691v.023c-.066.187-.146.385-.247.6l-.007.015h0l-.008.018c-.076.165-.162.333-.257.5s-.191.317-.3.474l-.016.024h0l-.013.019-.065.094-.03.044-.006.008-.008.012a.122.122,0,0,0-.029.086.547.547,0,0,0,.054.1h0a6.467,6.467,0,0,1,.367.733l.009.02v.006c.093.209.177.425.251.642l.011.032a4.2,4.2,0,0,1,.13.421l.026.1h0c.038.138.073.287.112.467v.01h0v.015c.035.162.068.323.09.487.011.083.023.15.035.212.021.106.033.214.045.32h0v.023h0a.59.59,0,0,0,.01.082c.015.111.025.224.031.345v.03c.014.3.013.6.012.9h0v.758a6.607,6.607,0,0,1-.063.985l0,.037c-.058.4-.125.757-.205,1.1-.007.031-.015.063-.021.093-.025.112-.058.221-.086.314-.017.057-.033.112-.047.163a3.043,3.043,0,0,1-.14.412c-.017.042-.033.084-.048.122a5.256,5.256,0,0,1-.258.589l-.042.082a5.644,5.644,0,0,1-.323.548l-.016.024h0v0a1.582,1.582,0,0,1-.1.138.176.176,0,0,0-.044.09.667.667,0,0,0,.056.155h0l.031.069.018.039c.127.286.235.551.327.809.05.14.1.28.137.414s.082.284.115.42c.009.036.019.071.031.11.028.1.05.192.074.3v.007l0,.023c.067.3.135.617.178.934.006.042.013.082.021.122.014.068.022.137.029.2l.009.077v.021h0v.013c.006.052.012.1.017.14l0,.042a.52.52,0,0,0,.011.075c.007.053.01.1.012.144V36.6c.008.165.013.335.016.519v.432c.008.17.008.17-.043.233a.972.972,0,0,1-.164.122,1.02,1.02,0,0,0-.086.061l-.049.036-.027.02-.083.061-.026.019c-.243.177-.506.36-.8.557h0l-.021.014c-.162.108-.323.212-.478.31l-.016.01h0L27.636,39c-.239.151-.5.307-.837.5ZM22.467,8.922a3.074,3.074,0,0,1,.365.015c.128.015.233.022.363.04h.032c.113.014.232.035.365.064.1.023.216.049.36.086l.029.007.135.036.026.007.048.013a.5.5,0,0,0,.131.021h.032a.207.207,0,0,0,.035-.1V9.1h0v-.01c0-.034.01-.065.014-.1l0-.037c.027-.194.049-.4.068-.624h0V8.3c.033-.387.049-.746.049-1.1V6.959h0a5.8,5.8,0,0,0-.045-.928.327.327,0,0,1,0-.055V5.852a.309.309,0,0,0-.009-.087.459.459,0,0,1-.011-.086v0l-.007-.065-.009-.078c-.011-.1-.025-.209-.047-.324-.009-.048-.017-.093-.023-.136-.023-.164-.055-.334-.1-.52-.035-.153-.076-.317-.13-.513l-.006-.023a5.111,5.111,0,0,0-.5-1.2l-.015-.026V2.783c-.111-.187-.278-.47-.49-.525h-.079a.377.377,0,0,0-.165.027.364.364,0,0,0-.138.131,7.145,7.145,0,0,0-.439.871h0c-.012.027-.025.055-.038.082a3.011,3.011,0,0,0-.142.329c-.037.1-.076.2-.121.338v.027c-.036.108-.066.2-.09.293h0c-.011.043-.023.088-.036.13-.033.106-.063.222-.094.356l-.008.034q-.1.448-.169.9c-.044.3-.077.609-.095.9l0,.086c-.022.336-.024.67-.024,1.011V8.23h0v.1l.036.054.084.126.022.033,0,.008.011.017.056.085.018.027.034.051.036.052a1,1,0,0,0,.065.1.175.175,0,0,0,.139.042h.473ZM6.766,2.241a.157.157,0,0,0-.1.033.474.474,0,0,0-.1.124c-.079.121-.181.325-.351.663l-.006.012L6.2,3.088a3.967,3.967,0,0,0-.169.393c-.044.116-.086.241-.137.405V3.93c-.046.147-.089.3-.127.453s-.072.3-.1.459c-.058.3-.1.613-.131.932l-.007.075a2.9,2.9,0,0,0-.047.357v.026c-.022.3-.025.593-.025.84V7.1c0,.2,0,.365.006.534v.046h0V7.7a1,1,0,0,0,.012.188c0,.019.006.043.008.068V8c0,.093.009.188.016.286v.062a1.042,1.042,0,0,0,.016.153c0,.026.008.054.01.088.01.13.021.236.035.334v.04a1.2,1.2,0,0,0,.059.245h.04a.9.9,0,0,0,.254-.056c.153-.043.313-.081.474-.113s.312-.054.475-.073a9.226,9.226,0,0,1,.964-.057h.265a.641.641,0,0,0,.074-.1l.026-.038L8.235,8.7a.989.989,0,0,1,.084-.117.721.721,0,0,0,.11-.159.637.637,0,0,0,.055-.162A1.006,1.006,0,0,0,8.5,8.092V7.728c0-.112,0-.228-.009-.356V7.262c0-.147-.01-.319-.019-.486V6.747c-.009-.161-.021-.31-.038-.453-.006-.054-.013-.11-.019-.167l-.008-.078V5.981L8.4,5.9V5.876a.6.6,0,0,0-.01-.084.213.213,0,0,1-.016-.06V5.666c-.018-.123-.038-.246-.059-.368V5.236a2.4,2.4,0,0,0-.051-.246c-.011-.039-.02-.071-.027-.1a8.687,8.687,0,0,0-.258-.921l-.017-.048h0a6.708,6.708,0,0,0-.41-.933c-.043-.082-.088-.157-.132-.226a1.96,1.96,0,0,0-.15-.2A1.365,1.365,0,0,0,7.1,2.39,1,1,0,0,0,6.9,2.266h0a.644.644,0,0,0-.138-.025Z" transform="translate(0 0)" fill="#1e1f20"/>
        <path id="Path_5" data-name="Path 5" d="M-506.118-.005h.034c.2,0,.392.008.589.019h.039a6.8,6.8,0,0,1,.778.082l.036.006a5.854,5.854,0,0,1,.616.137l.025.007A6.355,6.355,0,0,1-502.837.7l.076.037a5.479,5.479,0,0,1,1.131.741l.021.018c.149.125.291.259.429.4l.018.017c.067.067.131.134.192.206l.03.034a5.021,5.021,0,0,1,.632.929l.016.029a4.552,4.552,0,0,1,.228.516l.011.028a3.386,3.386,0,0,1,.224,1.2v.281a3.494,3.494,0,0,1-.09.891c-.006.024-.011.048-.016.073a3.939,3.939,0,0,1-.961,1.736l-.055.061a4.727,4.727,0,0,1-1.341,1l-.031.016a5.215,5.215,0,0,1-1.149.441l-.092.024c-.151.039-.3.073-.456.1l-.035.006a7.192,7.192,0,0,1-1.251.077h-1.117c-.215,0-.429,0-.644-.007h-.03a5.08,5.08,0,0,1-1.238-.172l-.08-.021a5.43,5.43,0,0,1-2.114-1.076l-.018-.015c-.1-.085-.2-.173-.29-.267l-.063-.063a2.79,2.79,0,0,1-.221-.247l-.03-.036A4.038,4.038,0,0,1-512,5.9V5.869l-.02-.093-.006-.027a2.164,2.164,0,0,1-.028-.421V4.783a2.2,2.2,0,0,1,.026-.365V4.391a4.047,4.047,0,0,1,.425-1.274l.035-.068a4.713,4.713,0,0,1,.592-.87l.016-.019a4.309,4.309,0,0,1,.417-.439l.061-.056c.081-.076.162-.147.249-.217l.039-.032a4.353,4.353,0,0,1,.368-.27l.025-.017A6.717,6.717,0,0,1-508.19.347l.036-.013a5.339,5.339,0,0,1,.9-.234h.028c.147-.024.3-.039.445-.053.074-.007.147-.015.221-.025a3.275,3.275,0,0,1,.44-.027ZM-509.329,2.7l-.032.029c-.08.071-.155.146-.231.221l-.031.031a2.6,2.6,0,0,0-.193.219l-.03.036a3.486,3.486,0,0,0-.376.545l-.014.024a1.563,1.563,0,0,0-.132.3.772.772,0,0,1-.04.1,1.443,1.443,0,0,0-.06.2l-.009.034a2.5,2.5,0,0,0,.27,1.892,2.744,2.744,0,0,0,.3.4l.03.034a3,3,0,0,0,.4.383l.02.016a3.931,3.931,0,0,0,.572.367l.023.012a4.25,4.25,0,0,0,1.711.472l.083,0c.182.012.365.011.547.011h1.046c.276,0,.55-.009.825-.026h.042a4.044,4.044,0,0,0,1.571-.461l.037-.019a3.209,3.209,0,0,0,.6-.375l.034-.027c.086-.07.163-.145.241-.222l.031-.031a2.49,2.49,0,0,0,.192-.219l.021-.027a2.775,2.775,0,0,0,.536-1.226l.007-.035a1.415,1.415,0,0,0,.019-.275V5.062a1.958,1.958,0,0,0-.026-.352l-.006-.033a3.342,3.342,0,0,0-1.155-1.932c-.026-.022-.051-.045-.076-.068-.072-.065-.147-.125-.225-.182l-.022-.017a4.965,4.965,0,0,0-1.509-.726l-.038-.012a5.437,5.437,0,0,0-.669-.15l-.037-.007a5.01,5.01,0,0,0-.857-.054h-.036A5.065,5.065,0,0,0-509.328,2.7Z" transform="translate(520.931 16.628)" fill="#1e1f20"/>
        <path id="Path_8" data-name="Path 8" d="M-213.555-27.146a1.677,1.677,0,0,1,.385.476c.016.03.034.059.052.088a.757.757,0,0,1,.089.448v.128a1.288,1.288,0,0,1-.068.448l-.012.034c-.01.028-.02.054-.031.081l-.012.029a1.83,1.83,0,0,1-.914,1,1.538,1.538,0,0,1-1.162-.029,1.508,1.508,0,0,1-.757-.824c-.017-.05-.033-.1-.047-.15l-.013-.04a.937.937,0,0,1-.015-.227v-.019a1.777,1.777,0,0,1,.109-.636l.011-.028a1.744,1.744,0,0,1,.349-.575l.019-.02a1.484,1.484,0,0,1,2.018-.18Z" transform="translate(221.872 44.364)" fill="#1e1f20"/>
        <path id="Path_9" data-name="Path 9" d="M-200.609-27.388l.019.016a1.721,1.721,0,0,1,.491.645l.019.04a2.145,2.145,0,0,1,.121.436l.01.045a1.316,1.316,0,0,1-.033.628l-.013.039a1.55,1.55,0,0,1-.347.553l-.022.024a1.374,1.374,0,0,1-.951.4,1.4,1.4,0,0,1-1.1-.432l-.022-.021a1.964,1.964,0,0,1-.445-.731l-.011-.029c-.011-.03-.022-.06-.031-.09l-.01-.03a1.609,1.609,0,0,1-.036-.425v-.043a.863.863,0,0,1,.15-.57l.029-.049a1.527,1.527,0,0,1,.5-.508l.02-.013A1.469,1.469,0,0,1-200.609-27.388Z" transform="translate(224.103 44.605)" fill="#1e1f20"/>
        <path id="Path_10" data-name="Path 10" d="M-113.451-21.888a.1.1,0,0,0,.088,0,.318.318,0,0,0,.051-.029l.029-.018.03-.019a1.022,1.022,0,0,1,.575-.2h.038a.552.552,0,0,1,.32.079l.032.022.028.02.021.015a.639.639,0,0,1,.211.357.633.633,0,0,1-.137.492c-.029.033-.06.064-.09.1l-.042.045a1.559,1.559,0,0,1-.347.266.349.349,0,0,0-.149.147,1.381,1.381,0,0,0,.044.44,1.3,1.3,0,0,1,.029.3v.044a.505.505,0,0,1-.121.373l-.022.024a.52.52,0,0,1-.377.151h-.156c-.368,0-.368,0-.514-.142a.629.629,0,0,1-.2-.385,1.421,1.421,0,0,1,.037-.249,2.454,2.454,0,0,0,.064-.472v-.033a.228.228,0,0,0-.022-.121.92.92,0,0,0-.133-.093,1.256,1.256,0,0,1-.615-.687.645.645,0,0,1,.116-.445.559.559,0,0,1,.332-.235,1.22,1.22,0,0,1,.882.255Z" transform="translate(128.353 42.35)" fill="#1e1f20"/>
      </g>
    </g>
  </g>
</svg>
